ffmpeg version git-2019-12-26-b0d0d7e Copyright (c) 2000-2019 the FFmpeg developers
  built with gcc 9.2.1 (GCC) 20191125
  configuration: --enable-gpl --enable-version3 --enable-sdl2 --enable-fontconfig --enable-gnutls --enable-iconv --enable-libass --enable-libdav1d --enable-libbluray --enable-libfreetype --enable-libmp3lame --enable-libopencore-amrnb --enable-libopencore-amrwb --enable-libopenjpeg --enable-libopus --enable-libshine --enable-libsnappy --enable-libsoxr --enable-libtheora --enable-libtwolame --enable-libvpx --enable-libwavpack --enable-libwebp --enable-libx264 --enable-libx265 --enable-libxml2 --enable-libzimg --enable-lzma --enable-zlib --enable-gmp --enable-libvidstab --enable-libvorbis --enable-libvo-amrwbenc --enable-libmysofa --enable-libspeex --enable-libxvid --enable-libaom --enable-libmfx --enable-ffnvcodec --enable-cuvid --enable-d3d11va --enable-nvenc --enable-nvdec --enable-dxva2 --enable-avisynth --enable-libopenmpt --enable-amf
  libavutil      56. 37.100 / 56. 37.100
  libavcodec     58. 65.100 / 58. 65.100
  libavformat    58. 35.101 / 58. 35.101
  libavdevice    58.  9.101 / 58.  9.101
  libavfilter     7. 69.101 /  7. 69.101
  libswscale      5.  6.100 /  5.  6.100
  libswresample   3.  6.100 /  3.  6.100
  libpostproc    55.  6.100 / 55.  6.100
Splitting the commandline.
Reading option '-v' ... matched as option 'v' (set logging level) with argument 'debug'.
Reading option '-nostdin' ... matched as option 'stdin' (enable or disable interaction on standard input) with argument 0.
Reading option '-progress' ... matched as option 'progress' (write program-readable progress information) with argument 'C:/Users/alexk/AppData/Local/Temp/KritaFFmpegProgress.ZK7132'.
Reading option '-r' ... matched as option 'r' (set frame rate (Hz value, fraction or abbreviation)) with argument '8'.
Reading option '-start_number' ... matched as AVOption 'start_number' with argument '0'.
Reading option '-i' ... matched as input url with argument 'C:/Users/alexk/OneDrive/Documents/crazy tennis/Art stuff/frame%04d.png'.
Reading option '-i' ... matched as input url with argument 'C:/Users/alexk/OneDrive/Documents/crazy tennis/Art stuff/palette.png'.
Reading option '-lavfi' ... matched as option 'lavfi' (create a complex filtergraph) with argument '[0:v][1:v] paletteuse'.
Reading option '-y' ... matched as option 'y' (overwrite output files) with argument '1'.
Reading option 'C:/Users/alexk/OneDrive/Documents/crazy tennis/Art stuff/Pickaxe guy.gif' ... matched as output url.
Reading option '-vf' ... matched as option 'vf' (set video filters) with argument 'scale=w=256:h=256:force_original_aspect_ratio=decrease'.
Trailing option(s) found in the command: may be ignored.
Finished splitting the commandline.
Parsing a group of options: global .
Applying option v (set logging level) with argument debug.
Applying option nostdin (enable or disable interaction on standard input) with argument 0.
Applying option progress (write program-readable progress information) with argument C:/Users/alexk/AppData/Local/Temp/KritaFFmpegProgress.ZK7132.
[file @ 0000019d4d6bac80] Setting default whitelist 'file,crypto'
Applying option lavfi (create a complex filtergraph) with argument [0:v][1:v] paletteuse.
Applying option y (overwrite output files) with argument 1.
Successfully parsed a group of options.
Parsing a group of options: input url C:/Users/alexk/OneDrive/Documents/crazy tennis/Art stuff/frame%04d.png.
Applying option r (set frame rate (Hz value, fraction or abbreviation)) with argument 8.
Successfully parsed a group of options.
Opening an input file: C:/Users/alexk/OneDrive/Documents/crazy tennis/Art stuff/frame%04d.png.
[image2 @ 0000019d4d6fb940] Opening 'C:/Users/alexk/OneDrive/Documents/crazy tennis/Art stuff/frame0000.png' for reading
[file @ 0000019d4d6ff000] Setting default whitelist 'file,crypto'
[AVIOContext @ 0000019d4d7071c0] Statistics: 9953 bytes read, 0 seeks
[image2 @ 0000019d4d6fb940] Opening 'C:/Users/alexk/OneDrive/Documents/crazy tennis/Art stuff/frame0001.png' for reading
[file @ 0000019d4d71c7c0] Setting default whitelist 'file,crypto'
[AVIOContext @ 0000019d4d707040] Statistics: 9088 bytes read, 0 seeks
[image2 @ 0000019d4d6fb940] Opening 'C:/Users/alexk/OneDrive/Documents/crazy tennis/Art stuff/frame0002.png' for reading
[file @ 0000019d4d71ed40] Setting default whitelist 'file,crypto'
[AVIOContext @ 0000019d4d709bc0] Statistics: 9388 bytes read, 0 seeks
[image2 @ 0000019d4d6fb940] Opening 'C:/Users/alexk/OneDrive/Documents/crazy tennis/Art stuff/frame0003.png' for reading
[file @ 0000019d4d709d80] Setting default whitelist 'file,crypto'
[AVIOContext @ 0000019d4d709e80] Statistics: 9309 bytes read, 0 seeks
Input #0, image2, from 'C:/Users/alexk/OneDrive/Documents/crazy tennis/Art stuff/frame%04d.png':
  Duration: 00:00:00.16, start: 0.000000, bitrate: N/A
    Stream #0:0, 4, 1/25: Video: png, 1 reference frame, rgba(pc), 128x128 [SAR 5905:5905 DAR 1:1], 0/1, 25 fps, 25 tbr, 25 tbn, 25 tbc
Successfully opened the file.
Parsing a group of options: input url C:/Users/alexk/OneDrive/Documents/crazy tennis/Art stuff/palette.png.
Successfully parsed a group of options.
Opening an input file: C:/Users/alexk/OneDrive/Documents/crazy tennis/Art stuff/palette.png.
[NULL @ 0000019d4d6fdf80] Opening 'C:/Users/alexk/OneDrive/Documents/crazy tennis/Art stuff/palette.png' for reading
[file @ 0000019d4d706f80] Setting default whitelist 'file,crypto'
[png_pipe @ 0000019d4d6fdf80] Format png_pipe probed with size=2048 and score=99
[png_pipe @ 0000019d4d6fdf80] Before avformat_find_stream_info() pos: 0 bytes read:991 seeks:0 nb_streams:1
[png_pipe @ 0000019d4d6fdf80] After avformat_find_stream_info() pos: 991 bytes read:991 seeks:0 frames:1
Input #1, png_pipe, from 'C:/Users/alexk/OneDrive/Documents/crazy tennis/Art stuff/palette.png':
  Duration: N/A, bitrate: N/A
    Stream #1:0, 1, 1/25: Video: png, 1 reference frame, rgba(pc), 16x16 [SAR 1:1 DAR 1:1], 0/1, 25 tbr, 25 tbn, 25 tbc
Successfully opened the file.
Parsing a group of options: output url C:/Users/alexk/OneDrive/Documents/crazy tennis/Art stuff/Pickaxe guy.gif.
Successfully parsed a group of options.
Opening an output file: C:/Users/alexk/OneDrive/Documents/crazy tennis/Art stuff/Pickaxe guy.gif.
[file @ 0000019d4dbf2ec0] Setting default whitelist 'file,crypto'
Successfully opened the file.
detected 4 logical cores
Stream mapping:
  Stream #0:0 (png) -> paletteuse:default
  Stream #1:0 (png) -> paletteuse:palette
  paletteuse -> Stream #0:0 (gif)
cur_dts is invalid st:0 (0) [init:0 i_done:0 finish:0] (this is harmless if it occurs once at the start per stream)
    Last message repeated 31 times
[graph 0 input from stream 0:0 @ 0000019d4d719000] Setting 'video_size' to value '128x128'
[graph 0 input from stream 0:0 @ 0000019d4d719000] Setting 'pix_fmt' to value '26'
[graph 0 input from stream 0:0 @ 0000019d4d719000] Setting 'time_base' to value '1/8'
[graph 0 input from stream 0:0 @ 0000019d4d719000] Setting 'pixel_aspect' to value '5905/5905'
[graph 0 input from stream 0:0 @ 0000019d4d719000] Setting 'sws_param' to value 'flags=2'
[graph 0 input from stream 0:0 @ 0000019d4d719000] Setting 'frame_rate' to value '8/1'
[graph 0 input from stream 0:0 @ 0000019d4d719000] w:128 h:128 pixfmt:rgba tb:1/8 fr:8/1 sar:5905/5905 sws_param:flags=2
[graph 0 input from stream 1:0 @ 0000019d4dbb7b80] Setting 'video_size' to value '16x16'
[graph 0 input from stream 1:0 @ 0000019d4dbb7b80] Setting 'pix_fmt' to value '26'
[graph 0 input from stream 1:0 @ 0000019d4dbb7b80] Setting 'time_base' to value '1/25'
[graph 0 input from stream 1:0 @ 0000019d4dbb7b80] Setting 'pixel_aspect' to value '1/1'
[graph 0 input from stream 1:0 @ 0000019d4dbb7b80] Setting 'sws_param' to value 'flags=2'
[graph 0 input from stream 1:0 @ 0000019d4dbb7b80] Setting 'frame_rate' to value '25/1'
[graph 0 input from stream 1:0 @ 0000019d4dbb7b80] w:16 h:16 pixfmt:rgba tb:1/25 fr:25/1 sar:1/1 sws_param:flags=2
[format @ 0000019d4dc74d40] Setting 'pix_fmts' to value 'rgb8|bgr8|rgb4_byte|bgr4_byte|gray|pal8'
[auto_scaler_0 @ 0000019d4dc74e40] w:iw h:ih flags:'bilinear' interl:0
[Parsed_paletteuse_0 @ 0000019d4d719e80] auto-inserting filter 'auto_scaler_0' between the filter 'graph 0 input from stream 0:0' and the filter 'Parsed_paletteuse_0'
[auto_scaler_1 @ 0000019d4dbf10c0] w:iw h:ih flags:'bilinear' interl:0
[Parsed_paletteuse_0 @ 0000019d4d719e80] auto-inserting filter 'auto_scaler_1' between the filter 'graph 0 input from stream 1:0' and the filter 'Parsed_paletteuse_0'
[AVFilterGraph @ 0000019d4dbeec40] query_formats: 5 queried, 2 merged, 2 already done, 0 delayed
[swscaler @ 0000019d4d76dbc0] Forcing full internal H chroma due to input having non subsampled chroma
[auto_scaler_0 @ 0000019d4dc74e40] w:128 h:128 fmt:rgba sar:5905/5905 -> w:128 h:128 fmt:bgra sar:1/1 flags:0x2
[swscaler @ 0000019d4d77af80] Forcing full internal H chroma due to input having non subsampled chroma
[auto_scaler_1 @ 0000019d4dbf10c0] w:16 h:16 fmt:rgba sar:1/1 -> w:16 h:16 fmt:bgra sar:1/1 flags:0x2
[Parsed_paletteuse_0 @ 0000019d4d719e80] [framesync @ 0000019d4dbf2fc8] Selected 1/200 time base
[Parsed_paletteuse_0 @ 0000019d4d719e80] [framesync @ 0000019d4dbf2fc8] Sync level 2
Output #0, gif, to 'C:/Users/alexk/OneDrive/Documents/crazy tennis/Art stuff/Pickaxe guy.gif':
  Metadata:
    encoder         : Lavf58.35.101
    Stream #0:0, 0, 1/100: Video: gif, 1 reference frame, pal8, 128x128 [SAR 1:1 DAR 1:1], 0/1, q=2-31, 200 kb/s, 8 fps, 100 tbn, 8 tbc (default)
    Metadata:
      encoder         : Lavc58.65.100 gif
Clipping frame in rate conversion by 0.000008
[gif @ 0000019d4dbf28c0] 89x114 image at pos (14;14) [area:128x128]
[gif @ 0000019d4dbf28c0] 96x112 image at pos (16;16) [area:128x128]
[gif @ 0000019d4dbf28c0] 96x105 image at pos (19;23) [area:128x128]
[Parsed_paletteuse_0 @ 0000019d4d719e80] [framesync @ 0000019d4dbf2fc8] Sync level 0
[out_0_0 @ 0000019d4dc74b80] EOF on sink link out_0_0:default.
No more output streams to write to, finishing.
frame=    4 fps=0.0 q=-0.0 Lsize=      10kB time=00:00:00.39 bitrate= 212.8kbits/s speed=  55x    
[AVIOContext @ 0000019d4d6fb780] Statistics: 0 seeks, 1 writeouts
video:10kB audio:0kB subtitle:0kB other streams:0kB global headers:0kB muxing overhead: 0.193143%
Input file #0 (C:/Users/alexk/OneDrive/Documents/crazy tennis/Art stuff/frame%04d.png):
  Input stream #0:0 (video): 4 packets read (37738 bytes); 4 frames decoded; 
  Total: 4 packets (37738 bytes) demuxed
Input file #1 (C:/Users/alexk/OneDrive/Documents/crazy tennis/Art stuff/palette.png):
  Input stream #1:0 (video): 1 packets read (991 bytes); 1 frames decoded; 
  Total: 1 packets (991 bytes) demuxed
Output file #0 (C:/Users/alexk/OneDrive/Documents/crazy tennis/Art stuff/Pickaxe guy.gif):
  Output stream #0:0 (video): 4 frames encoded; 4 packets muxed (10355 bytes); 
  Total: 4 packets (10355 bytes) muxed
5 frames successfully decoded, 0 decoding errors
[AVIOContext @ 0000019d4d700ec0] Statistics: 0 seeks, 1 writeouts
[AVIOContext @ 0000019d4d726d80] Statistics: 991 bytes read, 0 seeks
